<svg xmlns="http://www.w3.org/2000/svg" width="81" height="53" xmlns:v="https://vecta.io/nano"><path d="M0 0h81v53H0V0Zm0 0" fill="#556462"/><path d="M44.262 9.707c.832-.094.832-.094 1.199.02.18.164.262.375.355.597.106.246.106.246.325.387a3.59 3.59 0 0 0 .703.008c.23.008.23.008.343.097.102.215.18.434.258.657l.16.004.579.02.254.007.359.012.219.007c.168.012.168.012.23.075l.008.277v.852c-.008.117-.008.117-.07.18l-.477.03c-.168.02-.168.02-.27.22a.57.57 0 0 0 .126.374l.308-.031a4.23 4.23 0 0 1 .313-.031c.062.062.062.062.07.187l-.004.168v.554l-.004.462-.312.062-.145-.09c-.215-.128-.371-.117-.617-.109l-.238.008-.176.004.11.074.448.3.164.11c.227.223.368.485.516.762.024.039.043.078.066.121.27.586.145 1.332-.003 1.938-.079.343-.043.558.074.878.133.48.125.997.133 1.493l.004.172c.003.421-.067.765-.274 1.136-.133.137-.133.137-.262.227-.191.172-.23.242-.257.504l.015.394c.02.41-.054.707-.312 1.024-.22.273-.282.492-.278.84l-.004.144v.469l-.003.324-.004.852-.004.87-.008 1.708.18.03c.425.075.71.27.984.602.168.258.219.477.219.782v.183c-.016.153-.016.153-.14.274l-.411.015h-.841c-.203 0-.406 0-.61-.003h-2.31c-.168-.012-.168-.012-.23-.075l-.028-.293-.015-.187-.024-.383c-.054-.73-.215-1.469-.691-2.043-.106-.098-.106-.098-.234-.086l-.223.219a2.686 2.686 0 0 1-1.066.7c-.153.065-.153.065-.18.21l-.02.117.227-.008.297-.007.152-.004c.422-.008.738.097 1.063.379.023.035.054.07.082.105l.086.105c.167.258.214.477.21.782v.183c-.011.153-.011.153-.07.274l-2.176.02-1.007.003-.973.008-.375.004h-.52c-.05.004-.101.004-.156.004-.144 0-.144 0-.375-.04-.148-.175-.207-.347-.266-.57-.093-.3-.246-.52-.437-.765-.238-.36-.324-.68-.324-1.106.004-.047.004-.093.004-.14.011-.492.191-.883.422-1.313.058-.16.058-.16-.032-.316l-.12-.164a4.017 4.017 0 0 1-.49-.988l-.14.066c-.582.254-1.27.523-1.91.332-.48-.207-.82-.633-1.008-1.113a1.97 1.97 0 0 1 .207-1.528 8.025 8.025 0 0 1 1.528-1.742l.922-.906.242-.235c.117-.109.117-.109.129-.3-.016-.188-.016-.188-.137-.301-.172-.086-.262-.086-.453-.07-.18.078-.18.078-.36.187l-.183.106-.137.082.008.18.008.234.008.238a.68.68 0 0 1-.274.531c-.387.235-.789.223-1.23.235l-.22.007-.534.008c-.094-.097-.074-.18-.078-.312.007-.633.058-1.45.511-1.934.18-.152.282-.18.516-.21.246.027.395.097.602.226.171.066.257.039.433-.016l.414-.219c.36-.191.668-.316 1.074-.218a1.73 1.73 0 0 1 .872.812l.023.414.012.223c-.078.484-.485.828-.809 1.172l-.113.12-.235.25-.496.528-.238.254c-.582.57-.582.57-.77 1.324.028.207.118.313.266.453.219.114.442.102.684.063.207-.098.379-.23.558-.371l.13-.098c.32-.254.488-.543.687-.898.437-.73 1.117-1.235 1.828-1.668 1.02-.637 1.996-1.438 2.351-2.64.133-.653-.12-1.173-.394-1.743-.691-1.45-1.332-3.313-.82-4.906.441-1.032 1.171-1.82 2.199-2.27.37-.137.742-.156 1.129-.203zm0 0" fill="#dcf0ec"/><path d="M42.547 18.582c.191.184.348.379.504.598a10.17 10.17 0 0 0 .77.914l.57.683.433.52c1.68 2.027 1.68 2.027 1.774 3.121a.78.78 0 0 1-.207.523l-.22.106a.5.5 0 0 0-.253.39 9.1 9.1 0 0 0-.004.731v.27l.012.71.004.582.015 1.2v.218c-.004.153-.004.153.075.22l.351.046c.356.059.527.121.766.39.18.286.187.391.187.75h-2.297l-.062-1.124c-.168-.657-.344-1.317-.86-1.782-.226-.226-.312-.464-.406-.765l-.054-.164-.176-.54-.121-.374-.32-.985-.329-1-.476-1.46-.051-.153-.047-.145-.04-.12-.097-.368-.246.063c.047.293.14.562.235.84.015.054.035.105.054.16l.114.34.18.543.515 1.535a344424.594 344424.594 0 0 0 .437 1.297l.168.5.051.148c.078.234.121.387.043.621-.363.535-.992.785-1.55 1.063v.746l.269-.008a10.789 10.789 0 0 0 .531-.016c.39-.004.617.043.938.274.277.32.246.406.246.875h-2.11l-.12-.625a1.44 1.44 0 0 0-.872-.75c-.18-.024-.363-.032-.547-.04a1.79 1.79 0 0 1-.144-.007 11.294 11.294 0 0 1-.364-.016c.008-.14.008-.14.063-.312.168-.11.168-.11.379-.211.601-.305.937-.649 1.297-1.219l.074-.117c.41-.727.57-1.758.375-2.567-.203-.562-.504-.863-1.043-1.113-.496-.164-1.016-.156-1.492.067-.23.136-.418.273-.582.488v.246h.187l.098-.137c.246-.281.555-.445.926-.515.445-.02.87.093 1.215.39.425.469.523.844.507 1.469a4.342 4.342 0 0 1-.203.977l-.054.164a3.098 3.098 0 0 1-1.516 1.699l-.29.133-.25.125v.746l.27-.008.356-.008.176-.008c.39-.004.617.04.933.274.266.308.258.437.313.875h-2.668l-.246-.625c-.125-.2-.125-.2-.258-.364-.38-.488-.426-.894-.363-1.507.097-.34.218-.641.449-.91.12-.137.12-.137.105-.278a1.792 1.792 0 0 0-.265-.379 2.487 2.487 0 0 1-.54-1.3c-.324.03-.57.113-.867.253-.468.203-.914.274-1.425.18-.383-.21-.586-.469-.766-.863-.129-.598.012-.989.332-1.504.55-.809 1.328-1.512 2.062-2.149a3.29 3.29 0 0 0 .352-.367l.105-.12c.18-.227.176-.454.145-.731a.854.854 0 0 0-.289-.395c-.39-.113-.688-.047-1.035.137a4.115 4.115 0 0 1-.133.07l-.137.07-.328.18.02.18.023.242.024.234c-.004.22-.004.22-.082.368-.18.168-.348.168-.583.168h-.167l-.176-.004h-.176c-.145 0-.29 0-.434-.004v-.293l-.004-.164c.012-.446.118-.84.442-1.164.394-.032.531.023.867.25.309-.016.527-.133.793-.286.336-.175.625-.308 1.004-.214a1.32 1.32 0 0 1 .555.386c.117.317.105.606.007.926-.156.227-.34.41-.543.606L37 21.57l-.531.567c-.785.722-.785.722-1.2 1.66.008.3.086.531.27.77.219.203.445.328.746.343.64-.082 1.164-.52 1.61-.965a3.36 3.36 0 0 0 .296-.527c.375-.785 1.098-1.25 1.813-1.691a8.148 8.148 0 0 0 1.055-.778l.125-.097a3.927 3.927 0 0 0 1.363-2.27zm0 0" fill="#596865"/><path d="M0 0h.684v.336L.676 15v.227l-.004 4.82v2.601l-.004 7.633-.004 7.836v1.328L.66 42.957v7.82a21.78 21.78 0 0 0 0 .723l-.004.266.004.351v.2c.027.214.106.367.207.558V53H0V0zm0 0" fill="#fefefe"/><path d="M44.676 10.066l.16-.011c.16-.004.285 0 .437.047.172.171.313.375.313.625l-.164.043c-.707.207-1.18.496-1.582 1.128-.23.504-.184 1.176-.016 1.688.39.918 1.059 1.422 1.95 1.816a7.71 7.71 0 0 0 .804.246c-.016-.117-.016-.117-.062-.246-.102-.074-.102-.074-.23-.12l-.145-.063-.153-.059c-.41-.176-.797-.348-1.148-.633l-.113-.093c-.391-.348-.707-.907-.774-1.434a1.99 1.99 0 0 1 .39-1.34c.302-.305.63-.543 1.067-.574h.449l.243.004.246.004.601.004.313.75 1.672.062v.684l-.262.043c-.203.047-.29.078-.453.215a.917.917 0 0 0-.09.68c.125.187.219.288.441.343l.364.031v.559l-.18-.063c-.461-.129-.844-.074-1.285.09-.352.086-.617-.101-.91-.281l-.125-.078c-.54-.34-.961-.688-1.22-1.29a2.953 2.953 0 0 1-.062-.562l-.25.063c-.047.511.11.87.426 1.27.649.698 1.527 1.116 2.395 1.476.433.191.718.547.96.95.133.347.137.679.141 1.046v.148c0 .27-.011.477-.136.723-.028-.02-.055-.043-.083-.066-.57-.446-1.19-.762-1.84-1.07-3.37-1.602-3.37-1.602-3.933-3.15-.07-.257-.066-.51-.066-.776l.004-.176c.02-.895.343-1.703.976-2.348.3-.289.524-.293.93-.305zm0 0" fill="#5e6d6a"/><path d="M48.195 33.695c.5.414.914 1.067.989 1.72.062.874-.149 1.577-.696 2.257-.383.422-.875.652-1.414.8l-.117.036c-.637.133-1.289-.008-1.852-.317-.64-.425-1.132-1.004-1.292-1.77-.106-.839-.036-1.5.46-2.21 1.012-1.25 2.614-1.461 3.922-.516zm10.973-.398l.129.047c.691.304 1.156.898 1.441 1.582.188.793.14 1.574-.25 2.3-.441.684-1.027 1.047-1.797 1.266a2.731 2.731 0 0 1-1.93-.304c-.695-.461-1.116-1.083-1.316-1.899-.078-.906.094-1.598.684-2.305a2.712 2.712 0 0 1 3.039-.687zm0 0" fill="#e1f6f2"/><path d="M43.477 10.29l-.16.17c-.419.49-.633 1.08-.77 1.7l-.043.184c-.094.933.086 1.742.664 2.496.828 1.004 2.184 1.582 3.328 2.137l.543.265.172.086c.617.305 1.309.75 1.562 1.43.207.762.38 1.969-.023 2.691-.098.145-.188.25-.313.375h-.12l-.051-.164c-.621-1.887-2.098-3.082-3.805-3.957l-.34-.164a6.844 6.844 0 0 1-1.39-.89l-.153-.126c-.695-.585-1.324-1.5-1.445-2.425-.063-.946-.02-1.672.484-2.5.078.16.047.203.004.375-.16.761-.11 1.566.121 2.308l.047.16c.488 1.418 2.016 2.2 3.238 2.895l.137.074c.453.262.898.492 1.414.61.004-.118.004-.118-.062-.25a3.953 3.953 0 0 0-.442-.23l-.273-.134-.14-.07c-1.509-.723-3.145-1.676-3.743-3.309-.094-.343-.078-.703-.078-1.058v-.227c.012-.703.101-1.336.457-1.953.289-.258.793-.629 1.18-.5zm0 0" fill="#5e6d6a"/><path d="M41.68 16.023l.12.125.09.086.204.22c.676.702 1.511 1.155 2.367 1.597 1.613.836 3.027 2.015 3.605 3.804.137.59.153 1.23-.125 1.778-.257.379-.613.676-.992.933h-.062l-.008-.128c-.117-1-.715-1.82-1.293-2.614l-.078-.11c-.5-.679-1.051-1.32-1.63-1.937-.53-.59-1.14-1.336-1.456-2.07l.062-.121.157.187c.18.215.379.395.59.575.117.101.222.207.328.32.222.227.468.426.714.625l2.055 1.844h.188c-.008-.239-.086-.352-.246-.512l-.243-.219-.129-.117a20.484 20.484 0 0 0-.882-.758l-1.786-1.574-.101-.094a11.71 11.71 0 0 1-1.094-1.187l-.086-.11c-.136-.175-.242-.32-.27-.543zm0 0" fill="#5d6c69"/><path d="M39.445 33.234c2.348 0 2.348 0 2.825.461.222.305.378.57.359.965-.066.41-.258.742-.578 1.004a2.635 2.635 0 0 1-.188.063c.246.41.512.793.805 1.168l.66.898.098.14a1.78 1.78 0 0 0 .09.13l.082.117a.92.92 0 0 1 .129.293c-.91.144-.91.144-1.23-.082-.22-.227-.38-.496-.54-.766-.16-.262-.344-.504-.527-.75l-.196-.277-.093-.125c-.082-.121-.082-.121-.203-.336-.141-.211-.141-.211-.563-.223v2.559h-.93v-5.239zm0 0" fill="#e1f6f2"/><path d="M54.004 33.523c.297.223.531.48.762.77a6.45 6.45 0 0 1-.684.625h-.125a3.744 3.744 0 0 1-.184-.234c-.308-.356-.617-.485-1.082-.54-.55-.023-.968.067-1.39.438-.406.438-.485.902-.469 1.488.05.442.23.77.559 1.063.476.367.922.39 1.511.34.418-.094.688-.274.957-.606.098-.078.098-.078.22-.074a2.03 2.03 0 0 1 .421.277l.152.125c.035.032.075.059.114.094-.383.656-1.016 1.043-1.739 1.246-.867.078-1.566-.066-2.265-.613-.489-.438-.918-1.082-.957-1.758l-.012-.16a2.785 2.785 0 0 1 .691-2.02c.934-1 2.364-1.16 3.52-.46zm0 0" fill="#e0f5f1"/><path d="M26.54 33.598c.273.191.48.433.687.695a6.411 6.411 0 0 1-.68.625h-.125a3.832 3.832 0 0 1-.192-.234c-.293-.34-.562-.489-1.011-.536-.574-.015-.969.047-1.418.407-.387.367-.496.66-.512 1.195.016.473.074.867.395 1.227.453.421.836.53 1.449.52.566-.052.926-.278 1.289-.708.316.098.55.297.805.5-.403.602-.899.938-1.563 1.2-.742.144-1.488.054-2.144-.337-.56-.39-.895-.847-1.13-1.488l-.046-.125c-.215-.703-.098-1.414.23-2.059a2.986 2.986 0 0 1 1.696-1.316c.835-.195 1.546-.016 2.27.434Zm0 0" fill="#e1f6f2"/><path d="M35.414 33.297c2.234 0 2.234 0 2.73.312.278.293.415.512.458.914-.012.372-.133.73-.375 1.012-.579.52-1.024.38-1.883.38v2.558h-.93v-5.176Zm0 0" fill="#e2f7f3"/><path d="M59.305 34.48c.37.344.566.844.593 1.34a1.925 1.925 0 0 1-.554 1.293c-.469.387-.899.461-1.492.45-.454-.051-.762-.286-1.067-.614-.383-.504-.414-.972-.347-1.594.148-.511.476-.863.921-1.128.68-.313 1.352-.122 1.946.253Zm0 0" fill="#5b6a67"/><path d="M47.207 34.215l.238.14.168.102c.426.438.602.906.594 1.508-.035.422-.203.84-.512 1.137-.582.39-1.043.496-1.738.433-.473-.144-.805-.504-1.059-.918-.207-.441-.207-1.035-.07-1.492a2.29 2.29 0 0 1 .965-.969c.434-.129.996-.12 1.414.059zm0 0" fill="#576664"/><path d="M28.219 33.297h.93v4.238h2.667v.938H28.22v-5.176Zm0 0" fill="#e2f7f3"/><path d="M47.508 24.566l.062 4.864h.621a1.15 1.15 0 0 1 .68.625v.5h-1.238l-.125-.563c-.145-.344-.348-.582-.68-.75l-.324-.066-.168-.035c-.066-.008-.066-.008-.129-.024l-.02-1.426-.007-.66-.008-.761-.008-.239a2.99 2.99 0 0 1 .043-.59c.172-.168.172-.168.371-.25l.223-.16.117-.086.23-.168c.293-.21.293-.21.36-.21zm0 0" fill="#5c6b68"/><path d="M45.832 39.816c.254.18.422.438.559.715.043.477.054.914-.246 1.309-.297.32-.579.476-1.016.52a1.605 1.605 0 0 1-1.094-.52 1.63 1.63 0 0 1-.25-1.184c.137-.453.438-.726.828-.96.43-.102.82-.075 1.219.12Zm0 0" fill="#566663"/><path d="M56.273 39.754c.305.176.512.434.684.738.113.477.04.863-.207 1.285-.254.325-.598.508-.996.582-.336.024-.598-.082-.863-.273-.29-.266-.47-.535-.524-.934-.012-.433.024-.722.293-1.07a1.39 1.39 0 0 1 1.613-.328Zm0 0" fill="#596866"/><path d="M32.934 33.234h.992v5.239h-.992v-5.239Zm0 0" fill="#def3ef"/><path d="M29.09 39.656h.308c.254.485.47.985.676 1.492l.168.403.106.254c.02.039.035.082.05.12.118.282.118.282.118.348h-.313l-.246-.558h-1.426l-.25.558h-.308l1.117-2.617zm0 0" fill="#d6ebe7"/><path d="M47.2 39.656c.37 0 .37 0 .476.094.027.047.058.09.086.133l.097.148.098.164.211.325.105.164.465.668.258.363.063-2.059h.25v2.617c-.313 0-.313 0-.403-.078l-.078-.117-.09-.129-.09-.14-.097-.145-.2-.297-.386-.57-.395-.578-.062 2.054h-.309v-2.617zm0 0" fill="#d9eeea"/><path d="M34.129 39.777c.242.149.387.356.48.63l-.25.062-.097-.145c-.242-.27-.508-.363-.864-.386-.308.011-.5.124-.714.343-.223.309-.227.625-.184.996.086.258.215.461.434.63.27.124.582.1.867.058.222-.117.367-.223.496-.438l.062-.25h-1.054v-.25h1.367c0 .434-.047.664-.34.965a1.28 1.28 0 0 1-.996.367 1.45 1.45 0 0 1-.965-.554c-.226-.403-.238-.82-.184-1.274a1.55 1.55 0 0 1 .747-.812c.39-.133.816-.102 1.195.058zm0 0" fill="#dcf0ec"/><path d="M56.273 39.754c.305.176.512.434.684.738.113.477.04.863-.207 1.285-.254.325-.598.508-.996.582-.336.024-.598-.082-.863-.273-.29-.266-.47-.535-.524-.934-.012-.433.024-.722.293-1.07a1.39 1.39 0 0 1 1.613-.328Zm-1.472.578c-.156.285-.223.559-.16.883.097.293.25.57.5.758.308.136.68.105 1 .011.257-.125.398-.308.504-.566.093-.309.105-.602-.012-.906-.164-.293-.363-.5-.688-.606-.46-.086-.855.047-1.144.426ZM45.832 39.816c.254.18.422.438.559.715.043.477.054.914-.246 1.309-.297.32-.579.476-1.016.52a1.605 1.605 0 0 1-1.094-.52 1.63 1.63 0 0 1-.25-1.184c.137-.453.438-.726.828-.96.43-.102.82-.075 1.219.12Zm-1.566.504c-.22.305-.203.59-.168.957.078.278.203.453.402.657.324.136.617.136.96.093.34-.148.544-.41.685-.75.062-.351.015-.636-.188-.933-.273-.278-.488-.446-.887-.457-.367.004-.566.16-.804.433Zm0 0" fill="#daefeb"/><path d="M35.414 39.656h1.676v.313h-1.363v.87h1.238v.25h-1.238v.938h1.363v.246h-1.676v-2.617Zm0 0" fill="#d5e9e5"/><path d="M53.34 39.844a2.39 2.39 0 0 1 .433.5v.187l-.25.063a7.315 7.315 0 0 1-.105-.18c-.172-.242-.297-.352-.578-.445-.363-.04-.582.004-.887.218-.203.18-.273.348-.308.614-.024.465.097.71.394 1.066.285.149.55.133.863.098a.78.78 0 0 0 .508-.387l.113-.176h.25c-.02.332-.199.535-.433.746-.324.192-.625.25-.992.188-.442-.148-.703-.344-.934-.746-.121-.375-.137-.844-.008-1.219.184-.312.461-.578.813-.691.41-.078.754-.043 1.12.164zm0 0" fill="#dbf0ec"/><path d="M38.887 39.656c.254.094.433.192.558.438-.02.14-.02.14-.062.25h-.184l-.125-.313-.328-.043-.18-.023c-.207.004-.28.043-.421.191-.028.192-.047.313.07.473.152.117.293.14.48.176.383.09.59.199.813.535a.96.96 0 0 1-.102.64c-.226.266-.414.344-.758.387-.304-.012-.523-.148-.753-.34-.13-.164-.13-.164-.188-.312l.063-.188h.25l.015.149c.028.168.028.168.153.234a1.2 1.2 0 0 0 .457.074h.16c.148-.007.148-.007.254-.101.117-.164.101-.29.078-.48-.149-.204-.313-.231-.551-.278-.344-.078-.566-.164-.773-.46a1.02 1.02 0 0 1-.043-.509c.328-.46.578-.554 1.117-.5zm0 0" fill="#d9ede9"/><path d="M40.004 39.656h2.047v.313h-.867v2.304h-.313V39.97h-.867v-.313Zm0 0" fill="#cfe4e0"/><path d="M26.11 39.656h.312v2.371h1.238v.246h-1.55v-2.617Zm0 0" fill="#d4e8e4"/><path d="M40.375 34.23l.516-.011.148-.004h.14l.133-.004c.157.027.208.082.305.207.028.187.028.187 0 .375-.16.176-.25.187-.488.207l-.274-.008c-.066 0-.066 0-.14-.004a9.64 9.64 0 0 1-.34-.008v-.75zm0 0" fill="#586765"/><path d="M36.344 34.23l.515-.011.149-.004h.14l.133-.004c.157.027.211.078.305.207-.02.395-.02.395-.188.562l-.535.008c-.05 0-.097-.004-.152-.004-.121 0-.242 0-.367-.004v-.75zm0 0" fill="#576764"/><path d="M29.21 39.969c.204.234.302.508.419.789l.058.148c.145.36.145.36.145.434h-1.18l.559-1.371zm0 0" fill="#536260"/><path d="M46.766 11.285l.004.145.011.191.008.188c.02.171.02.171.164.246l.121.043v.308c-.336-.031-.574-.152-.86-.312l-.128-.07-.313-.176c.012-.145.012-.145.063-.313.129-.101.129-.101.293-.18l.16-.082c.188-.054.29-.043.477.012zm0 0" fill="#dcf1ed"/><path d="M42.73 39.656h.25v2.617h-.25v-2.617Zm0 0" fill="#e3f8f4"/><path d="M41.68 16.023c.164.165.304.309.433.5h-.187c-.246-.328-.246-.328-.246-.5Zm0 0" fill="#778784"/></svg>